<svg width="180" height="40" viewBox="0 0 180 40" fill="none" xmlns="http://www.w3.org/2000/svg">
  <path d="M20 0C8.954 0 0 8.954 0 20C0 31.046 8.954 40 20 40C31.046 40 40 31.046 40 20C40 8.954 31.046 0 20 0ZM20 30C14.477 30 10 25.523 10 20C10 14.477 14.477 10 20 10C25.523 10 30 14.477 30 20C30 25.523 25.523 30 20 30Z" fill="#0052CC"/>
  <path d="M55 10H65C68.314 10 71 12.686 71 16V16C71 19.314 68.314 22 65 22H55V10Z" fill="#0052CC"/>
  <path d="M55 24H68C71.314 24 74 26.686 74 30V30C74 33.314 71.314 36 68 36H55V24Z" fill="#0052CC"/>
  <path d="M80 10H90C93.314 10 96 12.686 96 16V30C96 33.314 93.314 36 90 36H80V10Z" fill="#0052CC"/>
  <path d="M102 10H112C115.314 10 118 12.686 118 16V30C118 33.314 115.314 36 112 36H102V10Z" fill="#0052CC"/>
  <path d="M124 10H134C137.314 10 140 12.686 140 16V16C140 19.314 137.314 22 134 22H124V10Z" fill="#0052CC"/>
  <path d="M124 24H137C140.314 24 143 26.686 143 30V30C143 33.314 140.314 36 137 36H124V24Z" fill="#0052CC"/>
  <path d="M149 10H159C162.314 10 165 12.686 165 16V30C165 33.314 162.314 36 159 36H149V10Z" fill="#0052CC"/>
  <path d="M171 10H180V36H171V10Z" fill="#0052CC"/>
</svg> 